<svg xmlns="http://www.w3.org/2000/svg" xmlns:xlink="http://www.w3.org/1999/xlink" viewBox="0 0 370 350"><defs><style>.cls-1{fill:none;}.cls-2{isolation:isolate;}.cls-3,.cls-4{fill:#fbb040;}.cls-25,.cls-3{opacity:0.2;}.cls-5{fill:#1d76bb;}.cls-6{fill:#e6e7e7;}.cls-7{fill:#e63f31;}.cls-8{fill:#616262;}.cls-9{fill:#fff;}.cls-10{fill:#949291;}.cls-11{fill:#6e6f71;}.cls-12,.cls-18,.cls-21{fill:#010101;}.cls-12,.cls-17{opacity:0.1;}.cls-12,.cls-17,.cls-21,.cls-25{mix-blend-mode:multiply;}.cls-13{fill:#c4c3c3;}.cls-14{fill:#a7a9ac;}.cls-15{fill:#d0d2d3;}.cls-16{fill:#28a8e0;}.cls-19{clip-path:url(#clip-path);}.cls-20{fill:#bfbebe;}.cls-21{opacity:0.05;}.cls-22{clip-path:url(#clip-path-2);}.cls-23{clip-path:url(#clip-path-3);}.cls-24{fill:#fedd10;}.cls-25{fill:#231f20;}</style><clipPath id="clip-path"><path class="cls-1" d="M217.42,89.77c-2.63-9.23.59-17.63,7.2-19.49L239.78,65c.29-.11.57-.22.88-.31l.07,0h0a10,10,0,0,1,1.1-.25c7.41-1.15,15.67,5.84,18.45,15.61,2.52,8.84-.33,16.9-6.38,19.21v0l-15.38,5.3a9.69,9.69,0,0,1-1.77.61l-.2.07v0c-.23.05-.45.12-.69.15C228.45,106.53,220.2,99.54,217.42,89.77Z"/></clipPath><clipPath id="clip-path-2"><path class="cls-1" d="M237.74,109.84c-2.63-9.23.59-17.63,7.2-19.49l15.16-5.28c.29-.11.58-.22.88-.31l.07,0h0a10,10,0,0,1,1.1-.25c7.41-1.15,15.67,5.84,18.45,15.61,2.52,8.84-.33,16.9-6.38,19.21v0l-15.38,5.3a9.7,9.7,0,0,1-1.77.61l-.2.07v0c-.23.05-.45.12-.69.15C248.78,126.6,240.52,119.61,237.74,109.84Z"/></clipPath><clipPath id="clip-path-3"><path class="cls-1" d="M198.67,31c-26.4-20-69.91-13.6-76.39,23.31-3.77,21.44,17.54,26.18,32.66,22.24,4.45-1.16,8.81-2.77,13.23-4.07,9.67-2.83,19.83-4.15,29.42-2.64s18.57,6,24.09,13.41c3.75,5,8.45-2.15,8.38-6.23-.09-5.33-4-11.63-6.29-16.15A88.59,88.59,0,0,0,198.67,31Z"/></clipPath></defs><title>smaArtboard 1 copy 22</title><g class="cls-2"><g id="Layer_1" data-name="Layer 1"><circle class="cls-3" cx="185" cy="175" r="166.46"/><circle class="cls-4" cx="185" cy="175" r="133.88"/><path class="cls-5" d="M110.7,202.7c-12.17,0-20.7-9.63-21.11-10.09L94,188.77l-2.2,1.92,2.2-1.92c.09.1,9,10,20.22,7.73,12.32-2.55,23.65-18.81,32.78-47l5.56,1.8c-10,30.8-22.49,47.95-37.21,51A23.15,23.15,0,0,1,110.7,202.7Z"/><path class="cls-5" d="M242.92,200.11A33.48,33.48,0,0,1,228.56,197c-17-8-22.1-28.28-22.31-29.14l5.68-1.37-2.84.68,2.84-.69c0,.19,4.65,18.48,19.14,25.24,9.17,4.27,20.51,3.13,33.71-3.4l2.59,5.23C258.55,197.92,250.37,200.11,242.92,200.11Z"/><path class="cls-6" d="M89.51,190.7h0c3.33.49,7,1.14,9.15,3.7a2.8,2.8,0,0,1,.81,2,2.26,2.26,0,0,1-1.69,1.8,5.08,5.08,0,0,1-2.6-.1,14.37,14.37,0,0,1-8.41-5.9,18,18,0,0,1,7.91,7.63c2.62,4.92-2.76,5.56-5.77,2.64-2.2-2.14-4-5.65-3.77-8.78.17-2.72,1.81-4.93,3.77-6.69,1.79-1.61,7.2-6.24,9.58-3.86C102.35,187,92.12,190.9,89.51,190.7Z"/><path class="cls-7" d="M86.95,188.45c1.36-2.5,3.66-6.88,1.87-9.65-3.43-5.34-6.71,4.78-7.79,7.66a75.93,75.93,0,0,0,1-11.67,22.66,22.66,0,0,0-.67-6.25c-.44-1.46-1.86-4.82-3.94-4.17s-2.23,4.89-2.31,6.63a20.85,20.85,0,0,0,4.79,14c-2.41-2.82-4.89-5.58-7.53-8.2a53.8,53.8,0,0,0-5.28-4.7c-1.45-1.1-3.54-2.82-5.53-2.57-5.6.7,2.77,9.5,4.08,10.88,5.12,5.41,10.16,8.2,16.79,11.48l.47.23c-1.64,3.3-7.13,13.63-2.86,16.57,5.68,3.64,7.41-13.25,5.58-16.86Z"/><polygon class="cls-8" points="170.25 308.08 170.25 239.98 164.41 239.98 164.41 307.43 170.25 308.08"/><polygon class="cls-8" points="193.78 308.88 193.78 239.98 187.94 239.98 187.94 309.1 193.78 308.88"/><polygon class="cls-9" points="61.38 33.59 61.04 60.27 58.69 60.24 59.78 32.39 61.38 33.59"/><path class="cls-9" d="M52.5,63c4,2.73,11.37-1.47,7.4-5.19S47.29,59.47,52.5,63Z"/><polygon class="cls-9" points="73.68 33.75 73.17 58.63 70.98 60.4 72.08 32.55 73.68 33.75"/><path class="cls-9" d="M64.8,62.33c4,2.63,11.37-1.41,7.4-5S59.6,58.92,64.8,62.33Z"/><polygon class="cls-9" points="84.23 33.23 84.19 48.48 82.26 50.05 82.81 32.17 84.23 33.23"/><path class="cls-9" d="M76.79,51.75c3.55,2.33,10.06-1.24,6.55-4.42S72.18,48.74,76.79,51.75Z"/><polygon class="cls-9" points="59.78 32.39 84.57 32.19 84.37 34.52 60.19 35.46 59.78 32.39"/><polygon class="cls-8" points="209.09 251.21 135.95 249.81 146.7 239.45 205.79 241.73 209.09 251.21"/><polygon class="cls-5" points="142.76 158.63 129.61 255.93 145.69 256.44 155.54 159.57 142.76 158.63"/><polygon class="cls-10" points="151.32 165.78 146.43 244.88 210.24 246.11 211.82 165.69 151.32 165.78"/><polygon class="cls-11" points="211.65 174.52 210.74 220.44 185.27 245.63 167.37 225.65 172.03 184.92 173.02 176.19 211.65 174.52"/><polygon class="cls-8" points="167.37 225.65 151.94 245.07 147.56 224.78 151.32 165.78 173.82 169.19 167.37 225.65"/><polygon class="cls-12" points="170.66 174.44 149.16 172.2 146.43 244.88 164.84 245.32 170.66 174.44"/><path class="cls-6" d="M196.47,167.72a11.32,11.32,0,0,0-12.58,4c-2.41-4.13-7.08-6.39-11.68-7.71-4.31-1.23-9.11-1.81-13.15.13s-6.74,7.15-4.64,11.11c1.12,2.11,4.65,3.2,5.68,1-.05.1-1.54.52-1.81.69a6,6,0,0,0-1.78,1.68,5.73,5.73,0,0,0,6.65,8.79c-3.72,1.39-6.19,6.08-3.67,9.61a6.37,6.37,0,0,0,10.28-.3c-2.45,3.94,3.93,6.66,6.87,4.8,3.19-2,3.23-6.88,2-10,1.31,3.41,4.07,9.37,8.72,7.92,5-1.56,4.36-9.64,2.06-13.09a12.91,12.91,0,0,0,5.21,4.5,4.1,4.1,0,0,0,5.58-2.19c.93-2.27.11-9.05-2.95-9.79a11,11,0,0,0,4.84.42,3.76,3.76,0,0,0,3.14-3.27c0-2.57-3.13-3.75-5.66-4.2Z"/><path class="cls-13" d="M179.42,192a8,8,0,0,1-3.87-1,7.72,7.72,0,0,1-2.54-2.31,6.61,6.61,0,0,1-8.28-2.55,5.17,5.17,0,0,1-.71-2.23,3.55,3.55,0,0,1-3.22-1.23c-1.87-2.33-.71-6.37.66-8.36a5.15,5.15,0,0,1,4.51-2.39l-.08.94a4.25,4.25,0,0,0-3.66,2c-1.23,1.79-2.18,5.39-.7,7.24a2.65,2.65,0,0,0,2.5.88,3.37,3.37,0,0,1,1.39-2.48,2.09,2.09,0,0,1,2.07-.25,1.21,1.21,0,0,1,.71,1c0,.32-.09.94-1,1.53a7.58,7.58,0,0,1-2.24,1,4.38,4.38,0,0,0,.58,1.9,6.11,6.11,0,0,0,5,2.66,6,6,0,0,0,2-.43,5.3,5.3,0,0,1-.52-3.37,3.14,3.14,0,0,1,2-2.55,2.14,2.14,0,0,1,1.93.26,2.29,2.29,0,0,1,.84,2.12,5.44,5.44,0,0,1-2.88,3.92,6.69,6.69,0,0,0,2.14,1.92,6.42,6.42,0,0,0,6.8-.15,5.13,5.13,0,0,0,1.91-3.09,6,6,0,0,1-3.1-1.59,3.17,3.17,0,0,1-.47-3.43,1.7,1.7,0,0,1,2-.84,2.61,2.61,0,0,1,1.48,1.09,6,6,0,0,1,1.13,3.95,7.67,7.67,0,0,0,1.08,0,11.75,11.75,0,0,0,7.76-4.14,4,4,0,0,0,.82-1.7,3,3,0,0,0-1.84-3,5.48,5.48,0,0,0-4,0l-.29-.89a6.4,6.4,0,0,1,4.64.08,4,4,0,0,1,2.37,4,5,5,0,0,1-1,2.11,12.6,12.6,0,0,1-8.45,4.52,8.82,8.82,0,0,1-1.27,0,6.08,6.08,0,0,1-2.29,3.73A6.65,6.65,0,0,1,179.42,192Zm-4.71-9.23a1.33,1.33,0,0,0-.43.07,2.31,2.31,0,0,0-1.35,1.84,4.39,4.39,0,0,0,.45,2.79,4.49,4.49,0,0,0,2.42-3.23,1.38,1.38,0,0,0-.46-1.26A1.1,1.1,0,0,0,174.7,182.77Zm7.95-.82a.72.72,0,0,0-.67.41,2.23,2.23,0,0,0,.3,2.31,5.06,5.06,0,0,0,2.56,1.33,5.08,5.08,0,0,0-.95-3.27,1.75,1.75,0,0,0-.94-.74A1.38,1.38,0,0,0,182.65,182Zm-15.94-1a1.36,1.36,0,0,0-.77.26,2.29,2.29,0,0,0-.94,1.49,7.1,7.1,0,0,0,1.67-.77c.44-.28.59-.54.58-.69s-.12-.19-.19-.22A.84.84,0,0,0,166.71,181Z"/><path class="cls-14" d="M175.19,213.79a3.46,3.46,0,0,1-3.19-2.12h0a3.45,3.45,0,1,1,4.52,1.85A3.41,3.41,0,0,1,175.19,213.79Zm-1.92-2.65a2.08,2.08,0,0,0,2.71,1.11,2.07,2.07,0,1,0-2.71-1.11Z"/><path class="cls-14" d="M175.07,223.8a3.45,3.45,0,0,1-1.34-6.63,3.45,3.45,0,0,1,4.51,1.85,3.45,3.45,0,0,1-1.85,4.52A3.41,3.41,0,0,1,175.07,223.8Zm0-5.52a2.07,2.07,0,1,0,.78.16A2.08,2.08,0,0,0,175.07,218.28Z"/><polygon class="cls-5" points="202.15 172.59 202.39 254.78 225.39 254.51 214.84 167.18 202.15 172.59"/><path class="cls-6" d="M255,126.38c5.06.42,10.85,1.61,13.22,6.1,1.91,3.62.87,8.26,2.77,11.89a9.34,9.34,0,0,0,9.35,4.56,12.54,12.54,0,0,0,8.82-6.06c-.73,4.69-3.24,8.91-6,12.78a31.21,31.21,0,0,1-6,6.7,19.13,19.13,0,0,1-22.35.47,26.44,26.44,0,0,1-7.21-8.48,45.19,45.19,0,0,1-4.21-9.91"/><path class="cls-15" d="M121.18,90.15c-2.78-9.77,1-18.61,8.38-19.76S145.23,76.24,148,86s-1,18.61-8.38,19.76S124,99.92,121.18,90.15Z"/><polygon class="cls-15" points="128.46 70.63 111.72 76.47 124.29 111.22 141.64 105.23 128.46 70.63"/><path class="cls-6" d="M105.15,95.74c-2.78-9.77,1-18.61,8.38-19.76S129.2,81.82,132,91.59s-1,18.61-8.38,19.76S107.93,105.51,105.15,95.74Z"/><path class="cls-15" d="M141.51,110.22c-2.78-9.77,1-18.61,8.38-19.76s15.67,5.84,18.45,15.61-1,18.61-8.38,19.76S144.29,120,141.51,110.22Z"/><polygon class="cls-15" points="148.78 90.7 132.05 96.53 144.62 131.29 161.97 125.3 148.78 90.7"/><path class="cls-6" d="M125.48,115.81c-2.78-9.77,1-18.61,8.38-19.76s15.67,5.84,18.45,15.61-1,18.61-8.38,19.76S128.26,125.58,125.48,115.81Z"/><path class="cls-12" d="M217,184.71s-58.37,14.68-75.72-24.47l45.48,6.28,28.71,6.4Z"/><path class="cls-9" d="M215,67.84l-.24-.37-19.86,10-11.83-8.57A73.23,73.23,0,0,1,175,67.33l-.61-.16c-1.35.42-3.05,1.16-3.54,1.32-4.84,1.62-10,2.64-15.06,1.63a19.16,19.16,0,0,1-4.41-1.5c-.92.51-1.85,1-2.81,1.43a27.26,27.26,0,0,1-4,1.5l.34,5L129.34,106l6.12,29.16,27.71,29.5L197,169.14l36-17.29,6.28-45.48L241,91.9l2.24-4.56C231.8,86,221.66,77.44,215,67.84Z"/><path class="cls-7" d="M117.75,143.23c-.55-1-.33-6.21-.33-6.21,3.11,14.73,15.17,26.11,15.17,26.11-.74-1.76-1.79-10.7-1.79-10.7,2.17,10,13.27,18,13.27,18-1.3-1.39-2.83-10.2-2.83-10.2a38.28,38.28,0,0,0,12.85,14.33l.7.43h0c29,17.9,68.43-2.89,68.43-2.89A36.78,36.78,0,0,1,209,183.51c30.78-5.5,36.15-26.37,36.15-26.37-.23,5.1-4.42,16.12-4.42,16.12,12-10.62,12.73-34.25,12.76-37.58,2.3,4,1.63,13.27,1.63,13.27,10.21-16.38-8.45-40.47-8.45-40.47,5,2.94,12.62,14.91,12.62,14.91-2.76-12.8-17.59-24.63-17.59-24.63,2.69-4.13,4.92-7.89,6.81-11.31a27.54,27.54,0,0,1-10-1.07,19.67,19.67,0,0,1-1.77,1.56s-.71-1.16-2-2.93C226.87,81.57,220,75,215,67.84a13.41,13.41,0,0,1-1.67-3.28c-1.58.76-2.46,1.26-2.46,1.26a37,37,0,0,0-3-2.82A15.37,15.37,0,0,1,200,68.13c-8.62,2.2-16.53,1.35-25-.8l-.61-.16c-1.35.42-3.05,1.16-3.54,1.32-4.84,1.62-10,2.64-15.06,1.63a19.16,19.16,0,0,1-4.41-1.5c-.92.51-1.85,1-2.81,1.43-5,2.32-10,3.19-15.11.92-2.74,2-3.08,3.39-3.08,3.39l7.85-1.76-4.22,18a31.7,31.7,0,0,0-16,9.52c1.81-1.08,7.75-.55,7.75-.55-14.85,8.11-17.39,21.84-17.39,21.84a8.65,8.65,0,0,1,5.8-3.54C104.45,136.16,117.75,143.23,117.75,143.23ZM196.86,111c-2.14,12.55-12.84,19-23.23,17.21s-16.51-11.07-14.37-23.62,13.66-29.27,24-27.5S199,98.4,196.86,111Zm56.42,24.32H253c0-.27,0-.41,0-.41A4.46,4.46,0,0,1,253.29,135.27Z"/><path class="cls-9" d="M154.38,121.12c8.28,3.62-11.1,9-11.1,9s-4.23-6-5.32-11.23S146.1,117.49,154.38,121.12Z"/><path class="cls-12" d="M257.07,129.32s-20.31,3.9-21.21-23.93L254.52,122Z"/><path class="cls-16" d="M289.69,142.08s-14.36,1-8.88-5.85S289.69,142.08,289.69,142.08Z"/><path class="cls-16" d="M289.69,142.06s4.59,13.65,8.81,6S289.69,142.06,289.69,142.06Z"/><polygon class="cls-6" points="290.7 140.74 290.71 131.83 298.38 137.43 290.7 140.74"/><g class="cls-17"><path class="cls-18" d="M234.69,81.8c-17.27-17.43-39.55-33.53-63.9-32.57-10.22.4-20.75,2.6-28.89,8.79S128.64,75.11,131.5,84.92a13.08,13.08,0,0,0,3.9,6.47c4.48,3.75,11.16,2.66,16.8,1.12,14.29-3.9,27.74-10.51,42.49-12.71a62.83,62.83,0,0,1,21.66.29c2.33.47,17.29,3.1,16,6.74"/></g><path class="cls-15" d="M239.78,65c.29-.11.57-.22.88-.31l.07,0h0a10,10,0,0,1,1.1-.25c7.41-1.15,15.67,5.84,18.45,15.61,2.52,8.84-.33,16.9-6.38,19.21v0l-17.35,6L224,70.5Z"/><g class="cls-19"><path class="cls-20" d="M247.24,104.67l-.92-.17c2-11.36.59-20.52-4.28-27.21a26.64,26.64,0,0,0-16.29-10.08L223.8,67l9.35-3.26.17.07c24.31,10.12,18.38,33.14,16.79,38.06l2.52-.88c4-9,4.49-16.87,1.36-23.27-4.93-10.07-17.21-13.15-17.33-13.18l.22-.91c.13,0,12.84,3.21,18,13.68,3.28,6.7,2.8,14.86-1.43,24.25l-.08.18-4.79,1.67.38-1c.43-1.09,10.32-26.73-15.79-37.71l-5.58,1.95a27.56,27.56,0,0,1,15.25,10.1C247.82,83.65,249.32,93.05,247.24,104.67Z"/></g><path class="cls-21" d="M261.05,84.74s.12-3.66-.9-5.13L238.53,89.86s3.5,5.67,3.87,5.24,16.93-7.9,16.93-7.9Z"/><path class="cls-15" d="M253.78,104.26c-2.78-9.77,1-18.61,8.38-19.76s15.67,5.84,18.45,15.61-1,18.61-8.38,19.76S256.56,114,253.78,104.26Z"/><polygon class="cls-15" points="261.05 84.74 244.31 90.57 256.88 125.32 274.23 119.34 261.05 84.74"/><path class="cls-6" d="M237.74,109.84c-2.78-9.77,1-18.61,8.38-19.76s15.67,5.84,18.45,15.61-1,18.61-8.38,19.76S240.52,119.61,237.74,109.84Z"/><g class="cls-22"><path class="cls-20" d="M263.69,127.69l.7-1.27c.07-.12,6.4-11.73,2.31-23.1-2.63-7.31-9-13-18.78-16.79l.34-.88c10.1,3.94,16.6,9.78,19.33,17.36,3.45,9.58-.25,19.3-1.78,22.65l4.73-2.21c3.18-9.57,3-17.91-.61-24.78-5.42-10.39-16.85-13.84-17-13.87l-1.4-.41L258.4,82l.16.06c10.19,3.9,16.67,9.68,19.24,17.18,4,11.65-3,23.49-3.09,23.61l-.8-.48c.07-.11,6.87-11.59,3-22.83-2.47-7.18-8.7-12.74-18.53-16.54l-3.87,1.35c3.23,1.25,11.74,5.24,16.24,13.88,3.73,7.15,3.94,15.81.61,25.72l-.06.19Z"/></g><path class="cls-6" d="M198.67,31c-26.4-20-69.91-13.6-76.39,23.31-3.77,21.44,17.54,26.18,32.66,22.24,4.45-1.16,8.81-2.77,13.23-4.07,9.67-2.83,19.83-4.15,29.42-2.64s18.57,6,24.09,13.41c3.75,5,8.45-2.15,8.38-6.23-.09-5.33-4-11.63-6.29-16.15A88.59,88.59,0,0,0,198.67,31Z"/><g class="cls-23"><path class="cls-15" d="M227.45,86.64l-.32-.42c-.3-.39-29.84-38.73-63.3-38.73h-.27C148,47.59,134,55.91,121.82,72.21L133.88,84.3c2.47-2.76,19.79-21.29,41.17-22,11.75-.38,22.77,4.61,32.69,14.87l-.6.58c-9.75-10.08-20.57-15-32.06-14.62-22.61.76-40.68,21.84-40.86,22.06l-.29.35-13.2-13.24.21-.29c12.4-16.72,26.74-25.25,42.63-25.34h.27c32,0,60.3,34.44,63.64,38.64l3.09-3.77c-19.85-26.06-41.18-40-63.41-41.44-28.55-1.84-48.57,18.1-48.77,18.3l-.67.68-.54-10.7.08-.12c10-14.33,21.89-21.94,35.41-22.64,32.13-1.66,64,35.46,74.54,47.66a41.89,41.89,0,0,0,3,3.37l-.34.76c-.36-.15-1.09-1-3.33-3.59-10.44-12.12-42.14-49-73.87-47.37-13.21.68-24.88,8.13-34.69,22.16l.43,8.57c3.73-3.44,22.77-19.59,48.75-17.91,22.55,1.46,44.15,15.6,64.22,42l.2.26Z"/></g><path class="cls-6" d="M217.42,89.77c-2.78-9.77,1-18.61,8.38-19.76s15.67,5.84,18.45,15.61-1,18.61-8.38,19.76S220.2,99.54,217.42,89.77Z"/><ellipse class="cls-9" cx="151.88" cy="111.47" rx="2.95" ry="4.65"/><ellipse class="cls-7" cx="179.46" cy="113.73" rx="2.95" ry="4.65"/><path class="cls-24" d="M67.94,192.76l32.19,110.08a5.36,5.36,0,0,0,10.28-3L71.08,165.32h0l-4.84-16.06,26.22-6.06-1.15-6.7,8.83-1.51.73,4.26-4.87.83,2.83,9.23-19,4.5,4.52,15.52h0l40.63,133a19,19,0,0,1-14.94,24.24h0a19,19,0,0,1-21-12.15l-26.6-72.28L33.3,227.79Z"/><path class="cls-25" d="M33.3,227.79l4.15-4.2,30.94,14.53s14.74,69.13,36.86,88.7a19,19,0,0,1-16.18-12.35l-26.6-72.28Z"/><path class="cls-7" d="M77.48,225.42l.59,2A28.93,28.93,0,0,1,62.75,243l-.28-.77-.56-.28A27.85,27.85,0,0,0,77.48,225.42Z"/><path class="cls-7" d="M66.38,252.82l-.44-1.2c8.13-1.75,13-7.2,15.74-11.87l.45,1.55A25.41,25.41,0,0,1,66.38,252.82Z"/><path class="cls-7" d="M106.41,314.36a13.73,13.73,0,0,0-.06-7.79,5.28,5.28,0,0,0,1.24-.42,15,15,0,0,1,.07,8.54c-1.13,3.94-3.84,7.53-8.06,10.74-.45-.19-.9-.4-1.34-.62C102.57,321.68,105.31,318.18,106.41,314.36Z"/><path class="cls-7" d="M115.75,308.27a13.75,13.75,0,0,0-5.21-6,5.29,5.29,0,0,0,.05-1.5,15,15,0,0,1,6.33,6.91c2,4.4,2,9.85.08,16.26a18.75,18.75,0,0,1-1.66.93C117.58,318.25,117.73,312.67,115.75,308.27Z"/><path class="cls-7" d="M33.3,227.79l34.64-35S79.06,241.55,33.3,227.79Z"/><path class="cls-24" d="M53.92,229.68l-.65,0C53.83,214.28,70.8,214.41,71,214.4v.65C70.3,215,54.46,214.95,53.92,229.68Z"/><path class="cls-24" d="M48.85,230.23H48.2c.06-6.6,2.08-11.79,6-15.43,6.83-6.34,17.23-5.74,17.33-5.73l0,.65c-.09,0-10.22-.59-16.85,5.56C50.85,218.78,48.9,223.82,48.85,230.23Z"/><ellipse class="cls-7" cx="87.06" cy="258.08" rx="4.7" ry="8.65" transform="translate(-81.64 44.25) rotate(-19.63)"/><path class="cls-7" d="M107.31,272.53a3.57,3.57,0,0,1-2.32-1,9.29,9.29,0,0,1-2.72-7.63,3.11,3.11,0,0,1,1.84-2.66c1.87-.67,4.22,1.26,5.34,4.4s.52,6.12-1.35,6.79A2.31,2.31,0,0,1,107.31,272.53Zm-2.43-10.15a1,1,0,0,0-.34.06,2,2,0,0,0-1,1.64,7.27,7.27,0,0,0,.42,3.49h0a7.25,7.25,0,0,0,1.88,3,2,2,0,0,0,1.81.64c1-.36,1.49-2.55.57-5.13C107.41,263.74,105.91,262.38,104.88,262.38Z"/><path class="cls-7" d="M79.62,167.86c-1.71,0-3.6-1.81-4.57-4.53h0a8.57,8.57,0,0,1-.48-4.13,3.11,3.11,0,0,1,1.84-2.66c1.88-.67,4.22,1.26,5.34,4.4s.52,6.12-1.35,6.79A2.27,2.27,0,0,1,79.62,167.86Zm-3.35-5c.92,2.57,2.68,4,3.68,3.61s1.49-2.55.57-5.13-2.69-4-3.68-3.61a2,2,0,0,0-1,1.64,7.27,7.27,0,0,0,.42,3.49Z"/><path class="cls-7" d="M111.85,285.21c-1.71,0-3.6-1.81-4.57-4.53h0c-1.12-3.14-.52-6.12,1.35-6.79a3.11,3.11,0,0,1,3.1.89,9.29,9.29,0,0,1,2.72,7.63,3.11,3.11,0,0,1-1.84,2.66A2.28,2.28,0,0,1,111.85,285.21Zm-3.35-5c.92,2.58,2.69,4,3.68,3.61a1.94,1.94,0,0,0,1-1.64,8,8,0,0,0-2.3-6.46,2,2,0,0,0-1.81-.64c-1,.36-1.48,2.55-.57,5.13Z"/><path class="cls-7" d="M116.36,297.89a3.57,3.57,0,0,1-2.32-1,8.58,8.58,0,0,1-2.24-3.5h0a8.56,8.56,0,0,1-.49-4.13,2.77,2.77,0,0,1,4.94-1.76,8.58,8.58,0,0,1,2.24,3.5c1.12,3.14.53,6.12-1.35,6.79A2.31,2.31,0,0,1,116.36,297.89Zm-2.43-10.15a1,1,0,0,0-.34.06,1.94,1.94,0,0,0-1,1.64,7.25,7.25,0,0,0,.42,3.49h0a7.25,7.25,0,0,0,1.88,3,2,2,0,0,0,1.81.64c1-.36,1.48-2.55.57-5.13a7.25,7.25,0,0,0-1.88-3A2.36,2.36,0,0,0,113.93,287.73Z"/><ellipse class="cls-7" cx="93.02" cy="276.62" rx="4.7" ry="8.65" transform="translate(-87.52 47.33) rotate(-19.63)"/><ellipse class="cls-7" cx="98.47" cy="295.24" rx="4.7" ry="8.65" transform="translate(-93.46 50.24) rotate(-19.63)"/><rect class="cls-7" x="78.85" y="258.78" width="8.52" height="3" transform="translate(262.75 466.16) rotate(156.6)"/><rect class="cls-7" x="86.39" y="277.56" width="8.52" height="3" transform="translate(284.66 499.18) rotate(156.6)"/><rect class="cls-7" x="90.41" y="295.91" width="8.52" height="3" transform="translate(299.65 532.79) rotate(156.6)"/><ellipse class="cls-7" cx="91.46" cy="189.53" rx="2.88" ry="5.29" transform="translate(-58.36 41.74) rotate(-19.63)"/><ellipse class="cls-7" cx="95.1" cy="200.87" rx="2.88" ry="5.29" transform="matrix(0.94, -0.34, 0.34, 0.94, -61.96, 43.63)"/><ellipse class="cls-7" cx="98.44" cy="212.27" rx="2.88" ry="5.29" transform="translate(-65.59 45.41) rotate(-19.63)"/><rect class="cls-7" x="86.44" y="189.96" width="5.21" height="1.84" transform="translate(246.56 330.71) rotate(156.6)"/><rect class="cls-7" x="91.05" y="201.45" width="5.21" height="1.84" transform="translate(259.97 350.91) rotate(156.6)"/><rect class="cls-7" x="93.51" y="212.68" width="5.21" height="1.84" transform="translate(269.14 371.47) rotate(156.6)"/><ellipse class="cls-7" cx="85.87" cy="219.51" rx="3.57" ry="6.57" transform="translate(-62.68 36.5) rotate(-17.7)"/><ellipse class="cls-7" cx="90.81" cy="233.46" rx="3.57" ry="6.57" transform="translate(-66.68 38.66) rotate(-17.7)"/><ellipse class="cls-7" cx="96.1" cy="247.22" rx="3.57" ry="6.57" transform="translate(-70.62 40.92) rotate(-17.7)"/><rect class="cls-7" x="86.03" y="217.88" width="6.47" height="2.28" transform="translate(-50.12 27.95) rotate(-13.94)"/><rect class="cls-7" x="90.13" y="232.7" width="6.47" height="2.28" transform="translate(-53.57 29.37) rotate(-13.94)"/><rect class="cls-7" x="96.16" y="245.64" width="6.47" height="2.28" transform="translate(-56.51 31.2) rotate(-13.94)"/><polygon class="cls-7" points="89.7 301.47 75.59 262.17 80.05 260.17 80.58 261.36 77.22 262.86 90.24 299.12 92.06 297.32 92.97 298.25 89.7 301.47"/><rect class="cls-7" x="83.23" y="280.47" width="5.16" height="1.3" transform="translate(-112.22 63.92) rotate(-25.38)"/><polygon class="cls-7" points="76.11 197.35 65.31 165.81 75.52 161.99 75.98 163.2 66.95 166.58 76.91 195.68 86.8 192.15 87.23 193.37 76.11 197.35"/><polygon class="cls-7" points="97.08 247.84 96.83 246.56 103.94 245.15 93.63 218.45 91.41 219.22 90.98 217.99 94.38 216.82 105.71 246.12 97.08 247.84"/><rect class="cls-7" x="91.71" y="232.41" width="7.7" height="1.3" transform="translate(-59.87 34.84) rotate(-15.81)"/><path class="cls-6" d="M264.8,193.81h0c-3,1.62-6.25,3.29-9.53,2.55a2.8,2.8,0,0,1-1.86-1.12,2.26,2.26,0,0,1,.27-2.46,5.08,5.08,0,0,1,2.13-1.48,14.37,14.37,0,0,1,10.27-.36,18,18,0,0,1-10.91-1.33c-5.06-2.34-1.15-6.1,3-5.58,3,.38,6.57,2.12,8.3,4.74,1.5,2.27,1.53,5,1,7.61-.46,2.36-2,9.32-5.32,8.85C256.76,204.47,262.59,195.22,264.8,193.81Z"/><path class="cls-7" d="M268.2,194.06c.42,2.81,1.23,7.7,4.32,8.83,6,2.2,2.47-7.86,1.6-10.8a75.93,75.93,0,0,0,6.23,9.91,22.66,22.66,0,0,0,4.3,4.59c1.23.9,4.39,2.73,5.66,1s-1.16-5.25-2.16-6.68a20.85,20.85,0,0,0-12.23-8.25c3.62.8,7.27,1.51,10.95,2a53.8,53.8,0,0,0,7,.57c1.82,0,4.53.12,6-1.28,4-3.93-7.94-5.91-9.81-6.23-7.35-1.24-13.05-.42-20.32.95l-.51.1c-.68-3.62-2.52-15.17-7.7-14.94-6.73.52,2.07,15,5.7,16.82Z"/><path class="cls-9" d="M97.25,121.55c-7.14-1.38-13.35-7.41-15.45-15-1.89-6.87-.62-14.76,3.48-21.65.71-1.19,1.49-2.34,2.25-3.46a45.82,45.82,0,0,0,3.12-5C92.36,73,92.79,69.68,91.87,67c-1-2.78-4.17-5.22-7.21-4.25l-.33-1c3.63-1.15,7.43,1.67,8.57,4.93,1,2.91.57,6.53-1.27,10.18A46.6,46.6,0,0,1,88.44,82c-.75,1.1-1.53,2.25-2.22,3.4-4,6.64-5.18,14.22-3.36,20.8,2,7.22,7.86,12.94,14.6,14.24Z"/><path class="cls-9" d="M186.49,161.27c-12.51,3.69-26.89,1.16-42.81-7.53a.69.69,0,0,1,.66-1.21c17,9.29,32.16,11.41,45,6.29,20-8,27.74-31,27.81-31.23a.69.69,0,0,1,1.31.43c-.08.24-8,23.89-28.62,32.09Q188.22,160.77,186.49,161.27Z"/><path class="cls-9" d="M225.77,131.11s-1.46-19.56-14.86-6.79c0,0,11.38-8.59,14.6,9.79"/></g></g></svg>